<svg width="26" height="26" viewBox="0 0 26 26" fill="none" xmlns="http://www.w3.org/2000/svg">
<path d="M10.8333 16.25L16.4558 13L10.8333 9.74996V16.25ZM23.3566 7.76746C23.4975 8.27663 23.595 8.95913 23.66 9.82579C23.7358 10.6925 23.7683 11.44 23.7683 12.09L23.8333 13C23.8333 15.3725 23.66 17.1166 23.3566 18.2325C23.0858 19.2075 22.4575 19.8358 21.4825 20.1066C20.9733 20.2475 20.0416 20.345 18.6116 20.41C17.2033 20.4858 15.9141 20.5183 14.7225 20.5183L13 20.5833C8.46079 20.5833 5.63329 20.41 4.51746 20.1066C3.54246 19.8358 2.91413 19.2075 2.64329 18.2325C2.50246 17.7233 2.40496 17.0408 2.33996 16.1741C2.26413 15.3075 2.23163 14.56 2.23163 13.91L2.16663 13C2.16663 10.6275 2.33996 8.88329 2.64329 7.76746C2.91413 6.79246 3.54246 6.16413 4.51746 5.89329C5.02663 5.75246 5.95829 5.65496 7.38829 5.58996C8.79663 5.51413 10.0858 5.48163 11.2775 5.48163L13 5.41663C17.5391 5.41663 20.3666 5.58996 21.4825 5.89329C22.4575 6.16413 23.0858 6.79246 23.3566 7.76746Z" fill="#FBFBFB"/>
</svg>
