<svg width="26" height="26" viewBox="0 0 26 26" fill="none" xmlns="http://www.w3.org/2000/svg">
<path d="M8.44996 2.16663H17.55C21.0166 2.16663 23.8333 4.98329 23.8333 8.44996V17.55C23.8333 19.2164 23.1713 20.8146 21.9929 21.9929C20.8146 23.1713 19.2164 23.8333 17.55 23.8333H8.44996C4.98329 23.8333 2.16663 21.0166 2.16663 17.55V8.44996C2.16663 6.78352 2.82862 5.18533 4.00697 4.00697C5.18533 2.82862 6.78352 2.16663 8.44996 2.16663ZM8.23329 4.33329C7.19895 4.33329 6.20697 4.74418 5.47558 5.47558C4.74418 6.20697 4.33329 7.19895 4.33329 8.23329V17.7666C4.33329 19.9225 6.07746 21.6666 8.23329 21.6666H17.7666C18.801 21.6666 19.7929 21.2557 20.5243 20.5243C21.2557 19.7929 21.6666 18.801 21.6666 17.7666V8.23329C21.6666 6.07746 19.9225 4.33329 17.7666 4.33329H8.23329ZM18.6875 5.95829C19.0466 5.95829 19.391 6.10096 19.645 6.35492C19.899 6.60887 20.0416 6.95331 20.0416 7.31246C20.0416 7.67161 19.899 8.01604 19.645 8.27C19.391 8.52395 19.0466 8.66663 18.6875 8.66663C18.3283 8.66663 17.9839 8.52395 17.7299 8.27C17.476 8.01604 17.3333 7.67161 17.3333 7.31246C17.3333 6.95331 17.476 6.60887 17.7299 6.35492C17.9839 6.10096 18.3283 5.95829 18.6875 5.95829ZM13 7.58329C14.4365 7.58329 15.8143 8.15398 16.8301 9.1698C17.8459 10.1856 18.4166 11.5634 18.4166 13C18.4166 14.4365 17.8459 15.8143 16.8301 16.8301C15.8143 17.8459 14.4365 18.4166 13 18.4166C11.5634 18.4166 10.1856 17.8459 9.1698 16.8301C8.15398 15.8143 7.58329 14.4365 7.58329 13C7.58329 11.5634 8.15398 10.1856 9.1698 9.1698C10.1856 8.15398 11.5634 7.58329 13 7.58329ZM13 9.74996C12.138 9.74996 11.3114 10.0924 10.7019 10.7019C10.0924 11.3114 9.74996 12.138 9.74996 13C9.74996 13.8619 10.0924 14.6886 10.7019 15.2981C11.3114 15.9075 12.138 16.25 13 16.25C13.8619 16.25 14.6886 15.9075 15.2981 15.2981C15.9075 14.6886 16.25 13.8619 16.25 13C16.25 12.138 15.9075 11.3114 15.2981 10.7019C14.6886 10.0924 13.8619 9.74996 13 9.74996Z" fill="#FBFBFB"/>
</svg>
